<svg width="29" height="30" viewBox="0 0 29 30" fill="none" xmlns="http://www.w3.org/2000/svg">
<ellipse cx="14.5" cy="15" rx="14.5" ry="15" fill="#FF9800"/>
<g clip-path="url(#clip0_16_143)">
<path d="M20.2121 17.3438C18.8775 17.3438 17.7955 18.498 17.7955 19.9219C17.7955 21.3457 18.8775 22.5 20.2121 22.5C21.5468 22.5 22.6288 21.3457 22.6288 19.9219C22.6288 18.498 21.5468 17.3438 20.2121 17.3438ZM20.2121 20.625C19.8488 20.625 19.553 20.3095 19.553 19.9219C19.553 19.5343 19.8488 19.2188 20.2121 19.2188C20.5754 19.2188 20.8712 19.5343 20.8712 19.9219C20.8712 20.3095 20.5754 20.625 20.2121 20.625ZM22.4091 12.1875H20.6515V11.0098C20.6515 10.5961 20.7806 10.1965 21.0126 9.87188C21.134 9.70195 21.1101 9.45996 20.9764 9.30088L20.3824 8.59277C20.1995 8.37451 19.8793 8.39004 19.7041 8.61563C19.1845 9.28418 18.8939 10.1312 18.8939 11.0098V12.1875H16.0837L14.5434 8.35371C14.4422 8.10024 14.2733 7.88414 14.0578 7.73234C13.8423 7.58053 13.5897 7.49973 13.3315 7.5H9.66667C8.93975 7.5 8.34849 8.13076 8.34849 8.90625V13.1988C8.11149 13.0017 7.77288 13.0096 7.55511 13.2419L6.70076 14.1533C6.46486 14.405 6.46486 14.8131 6.70076 15.0647L6.83972 15.213C6.70268 15.4843 6.59366 15.7644 6.51264 16.0544H6.31629C5.98263 16.0544 5.71212 16.343 5.71212 16.6989V17.988C5.71212 18.3439 5.98263 18.6325 6.31629 18.6325H6.51237C6.59366 18.9229 6.70241 19.2026 6.83944 19.4742L6.70049 19.6225C6.46459 19.8741 6.46459 20.2822 6.70049 20.5339L7.55483 21.4453C7.79073 21.697 8.17328 21.697 8.40918 21.4453L8.54814 21.2971C8.80244 21.4433 9.06497 21.5596 9.33685 21.646V21.8555C9.33685 22.2114 9.60735 22.5 9.94102 22.5H11.1493C11.483 22.5 11.7535 22.2114 11.7535 21.8555V21.6463C12.0254 21.5599 12.2879 21.4436 12.5422 21.2974L12.6812 21.4456C12.9171 21.6973 13.2996 21.6973 13.5355 21.4456L14.3899 20.5342C14.6258 20.2825 14.6258 19.8744 14.3899 19.6228L14.2509 19.4745C14.388 19.2032 14.497 18.9231 14.578 18.6331H14.7746C15.1083 18.6331 15.3788 18.3445 15.3788 17.9886V17.8128H17.5906C18.1923 16.9635 19.1373 16.4065 20.2121 16.4065C20.724 16.4065 21.2027 16.5416 21.6347 16.764L23.0303 15.2751C23.1951 15.0993 23.2876 14.8608 23.2876 14.6121V13.125C23.2879 12.6073 22.8943 12.1875 22.4091 12.1875ZM10.5455 19.6875C9.33218 19.6875 8.34849 18.6381 8.34849 17.3438C8.34849 16.0494 9.33218 15 10.5455 15C11.7587 15 12.7424 16.0494 12.7424 17.3438C12.7424 18.6381 11.7587 19.6875 10.5455 19.6875ZM11.1496 12.1875H10.1061V9.375H13.0415L14.1716 12.1875H11.1496Z" fill="white"/>
</g>
<defs>
<clipPath id="clip0_16_143">
<rect width="17.5758" height="18.75" fill="white" transform="translate(5.71212 5.625)"/>
</clipPath>
</defs>
</svg>
